<?xml version="1.0" encoding="utf-8"?>
<!-- Generator: Adobe Illustrator 24.3.0, SVG Export Plug-In . SVG Version: 6.00 Build 0)  -->
<svg version="1.1" id="Layer_1" xmlns="http://www.w3.org/2000/svg" xmlns:xlink="http://www.w3.org/1999/xlink" x="0px" y="0px"
	 viewBox="0 0 130 130" style="enable-background:new 0 0 130 130;" xml:space="preserve">
<style type="text/css">
	.st0{fill:none;stroke:#000000;stroke-width:1.5;stroke-miterlimit:10;}
	.st1{fill:#15AD60;}
</style>
<g>
	<g>
		<polygon class="st0" points="21.48,54.91 26.11,50.22 31.53,50.22 45.59,47.8 45.59,50.11 43.28,52.54 47.91,57.28 38.36,67.05 
			38.42,71.88 47.91,74.56 52.71,79.31 50.68,83.71 48.08,86.65 44.71,93.47 41.02,96.36 38.42,84.11 33.56,79.25 35.88,74.62 
			28.71,67.22 26.17,57.34 21.48,57.34 		"/>
		<polygon class="st0" points="50.68,47.8 57.74,47.8 57.74,52.48 50.68,57.28 48.13,52.54 		"/>
		<polygon class="st0" points="70.05,59.88 62.93,64.62 62.93,57.28 70.05,52.54 87.05,50 108.85,52.54 101.84,57.28 104.16,64.62 
			99.36,69.54 96.99,74.45 91.96,69.54 89.7,74.45 87.05,69.48 80.1,74.45 74.96,69.48 70.1,69.48 74.85,71.88 79.7,79.2 
			79.7,84.39 71.65,93.47 67.68,93.82 65.19,81.68 58.02,76.63 60.45,69.54 70.1,62.42 		"/>
		<polygon class="st0" points="94.39,86.65 104.1,81.96 106.7,89.08 104.16,96.14 99.41,91.51 94.67,91.39 		"/>
		<polygon class="st0" points="62.56,98.06 89.04,112.3 119.58,98.82 119.58,17.7 89.04,32.49 62.56,17.7 36.08,32.49 10.42,17.7 
			10.42,98.82 36.08,112.3 		"/>
	</g>
	<polygon class="st1" points="91.32,42.63 84.83,57.37 77.76,42.63 	"/>
	<polygon class="st1" points="51.3,68.58 44.81,83.31 37.74,68.58 	"/>
	<polygon class="st1" points="60.32,35.23 53.83,49.97 46.76,35.23 	"/>
	<polygon class="st1" points="107.05,75.24 100.56,89.98 93.49,75.24 	"/>
</g>
</svg>
