<?xml version="1.0" encoding="utf-8"?>
<!-- Generator: Adobe Illustrator 24.3.0, SVG Export Plug-In . SVG Version: 6.00 Build 0)  -->
<svg version="1.1" id="Layer_1" xmlns="http://www.w3.org/2000/svg" xmlns:xlink="http://www.w3.org/1999/xlink" x="0px" y="0px"
	 viewBox="0 0 130 130" style="enable-background:new 0 0 130 130;" xml:space="preserve">
<style type="text/css">
	.st0{fill:none;stroke:#000000;stroke-width:1.5;stroke-miterlimit:10;}
	.st1{fill:#15AD60;}
</style>
<g>
	<polyline class="st0" points="98.31,42.25 98.31,30.78 88.58,30.78 88.58,24.45 82.75,13.42 73.95,13.42 73.95,40.61 69.24,40.61 
		69.24,60.49 63.93,60.49 	"/>
	<polyline class="st0" points="63.34,60.81 58.28,60.81 58.28,48.15 51.01,48.15 	"/>
	<path class="st0" d="M94.93,116.52c0,0-0.2-80.6-0.2-80.38l8.91,15.83v5.79h4.91v58.76"/>
	<polyline class="st0" points="117.65,92.01 117.65,63 108.75,63 	"/>
	<line class="st0" x1="63.42" y1="19.25" x2="63.42" y2="116.58"/>
	<rect x="38.46" y="27.59" class="st0" width="12.61" height="89"/>
	<polyline class="st0" points="38.7,48.55 31.82,48.55 26.6,48.55 26.6,59.86 18.8,59.86 18.8,51.91 12.35,51.91 12.35,92.01 	"/>
	<g>
		<circle class="st1" cx="63.34" cy="31.57" r="7.02"/>
	</g>
	<line class="st0" x1="82.47" y1="47.35" x2="82.47" y2="53.25"/>
	<polygon class="st0" points="88.05,68.16 88.05,61.76 86.19,61.76 86.19,52.97 78.76,52.97 78.76,61.76 76.9,61.76 76.9,68.16 
		75.36,68.16 75.36,116.5 89.59,116.5 89.59,68.16 	"/>
	<line class="st0" x1="75.65" y1="74.22" x2="82.94" y2="74.22"/>
	<line class="st0" x1="75.65" y1="78.69" x2="82.94" y2="78.69"/>
	<line class="st0" x1="75.65" y1="83.17" x2="82.94" y2="83.17"/>
	<line class="st0" x1="75.65" y1="87.65" x2="82.94" y2="87.65"/>
	<line class="st0" x1="75.65" y1="92.12" x2="82.94" y2="92.12"/>
	<line class="st0" x1="75.65" y1="96.6" x2="82.94" y2="96.6"/>
	<line class="st0" x1="75.65" y1="101.07" x2="82.94" y2="101.07"/>
	<line class="st0" x1="75.65" y1="105.55" x2="82.94" y2="105.55"/>
	<polygon class="st1" points="102.59,116.42 102.59,75.99 98.12,67.64 98.12,116.42 	"/>
</g>
</svg>
