<?xml version="1.0" encoding="utf-8"?>
<!-- Generator: Adobe Illustrator 24.3.0, SVG Export Plug-In . SVG Version: 6.00 Build 0)  -->
<svg version="1.1" id="Layer_1" xmlns="http://www.w3.org/2000/svg" xmlns:xlink="http://www.w3.org/1999/xlink" x="0px" y="0px"
	 viewBox="0 0 130 130" style="enable-background:new 0 0 130 130;" xml:space="preserve">
<style type="text/css">
	.st0{fill:none;stroke:#000000;stroke-width:1.5;stroke-miterlimit:10;}
	.st1{fill:#15AD60;}
	.st2{fill:none;stroke:#15AD60;stroke-width:2;stroke-miterlimit:10;}
</style>
<g>
	<g>
		<line class="st0" x1="43.59" y1="34.03" x2="91.83" y2="34.03"/>
		<path class="st0" d="M13.84,18.32l83.3,0.78c0,0,7.09,2.56,6.39,13.54h-4.51l0.17,2.98l4.38,3.53l-6.81,3.72l6.81,4.46v17.76v7.67
			v16.61"/>
		<path class="st0" d="M33.18,89.37h71.4c4.89,0,8.85,4.25,8.85,9.49v2.98c0,5.24-3.96,9.49-8.85,9.49h-71.4
			c-4.89,0-8.85-4.25-8.85-9.49"/>
		<path class="st0" d="M26.43,92.73"/>
		<line class="st0" x1="64.36" y1="98.76" x2="93.5" y2="98.76"/>
		<path class="st0" d="M34.63,89.37c4.7,0,8.81,5.49,8.81,11.35c0,5.86-3.81,10.6-8.51,10.6"/>
		<path class="st0" d="M24.34,101.83V81l5.72-5.21l-5.55-5.02c0,0,0.35-34.22,0-40.73s-3.66-9.11-3.66-9.11l-0.61-0.58
			c-1.55-1.12-4.06-1.77-6.03-1.77c-5.53,0-8.32,5.12-8.32,11.43s2.78,11.43,8.32,11.43l10.46,0.07"/>
		<line class="st0" x1="35.79" y1="44.45" x2="91.83" y2="44.45"/>
		<line class="st0" x1="35.79" y1="54.96" x2="91.83" y2="54.96"/>
		<line class="st0" x1="35.79" y1="65.19" x2="70.66" y2="65.19"/>
		<line class="st0" x1="36.22" y1="75.88" x2="60.95" y2="75.88"/>
		<ellipse class="st0" cx="37.63" cy="33.96" rx="1.41" ry="1.51"/>
		<ellipse class="st0" cx="99.23" cy="98.76" rx="1.41" ry="1.51"/>
		<path class="st0" d="M13.19,28.38c3.36,0,6.09,2.92,6.09,6.53c0,3.61-2.73,6.53-6.09,6.53"/>
		<path class="st0" d="M36.96,89.77c-0.66-0.26-1.37-0.4-2.11-0.4c-3.36,0-6.09,2.92-6.09,6.53c0,3.61,2.73,6.53,6.09,6.53
			c0.22,0,0.44-0.01,0.66-0.04"/>
	</g>
	<g>
		<path class="st1" d="M124.56,50.56c0,0-13.13-5.09-25.32,2.52l-2.46,5.66l-3.36-2.1c0,0-5.72,3.98-6.66,6.63l1.01,4.71l-3.79-2.37
			c0,0-2.86,3.61,1.52,8.5c0,0,5.51,5,10.55,1.92c5.04-3.08,9.33-6.88,9.33-6.88l-0.85-5.23l2.78,2.72
			C107.32,66.64,121.6,54.34,124.56,50.56z"/>
		<path class="st2" d="M76.7,83.24c0,0,23.73-30.36,45.33-32.56"/>
	</g>
</g>
</svg>
