<svg xmlns="http://www.w3.org/2000/svg" viewBox="0 0 39.18 34.18"><defs><style>.cls-1{fill:none;stroke:#15ad60;stroke-miterlimit:10;fill-rule:evenodd;}.cls-2{fill:#15ad60;}</style></defs><g id="Layer_2" data-name="Layer 2"><g id="_00_btn" data-name="00_btn"><polygon class="cls-1" points="0.88 33.68 38.33 33.68 20.18 1.01 0.88 33.68"/><path class="cls-2" d="M15.85,25.27H13.63v6.11H12.41V25.27h-2.2v-1h5.64Z"/><path class="cls-2" d="M22.32,28A4.41,4.41,0,0,1,22,29.85a2.75,2.75,0,0,1-1,1.21,3,3,0,0,1-3.08,0,2.77,2.77,0,0,1-1.05-1.21,4.25,4.25,0,0,1-.37-1.8v-.4a4.24,4.24,0,0,1,.37-1.83,2.72,2.72,0,0,1,1-1.22,2.85,2.85,0,0,1,1.54-.42,2.93,2.93,0,0,1,1.54.41,2.78,2.78,0,0,1,1,1.2,4.39,4.39,0,0,1,.37,1.83Zm-1.24-.37a3.18,3.18,0,0,0-.44-1.81,1.57,1.57,0,0,0-2.52,0,3,3,0,0,0-.46,1.77V28a3.14,3.14,0,0,0,.45,1.82,1.5,1.5,0,0,0,1.27.64,1.44,1.44,0,0,0,1.26-.63A3.13,3.13,0,0,0,21.08,28Z"/><path class="cls-2" d="M24.78,28.75v2.63H23.55V24.27h2.72a2.78,2.78,0,0,1,1.89.62,2.1,2.1,0,0,1,.7,1.65,2,2,0,0,1-.68,1.62,2.89,2.89,0,0,1-1.93.59Zm0-1h1.49a1.43,1.43,0,0,0,1-.31,1.13,1.13,0,0,0,.35-.9,1.25,1.25,0,0,0-.35-.92,1.37,1.37,0,0,0-1-.35H24.78Z"/></g></g></svg>